<svg xmlns="http://www.w3.org/2000/svg" xmlns:xlink="http://www.w3.org/1999/xlink" viewBox="0 0 314.52 281.82"><defs><style>.cls-1{fill:url(#radial-gradient);}.cls-2{fill:url(#radial-gradient-7);}.cls-3{fill:url(#radial-gradient-8);}.cls-4{fill:#898476;}.cls-5{font-size:28.82px;fill:#97998c;font-family:Leelawadee;letter-spacing:0.03em;}.cls-6{letter-spacing:0.03em;}.cls-7{letter-spacing:0.03em;}</style><radialGradient id="radial-gradient" cx="156.35" cy="115.42" r="38.26" gradientUnits="userSpaceOnUse"><stop offset="0.02" stop-color="#8dc63f"/><stop offset="1" stop-color="#009444"/></radialGradient><radialGradient id="radial-gradient-7" cx="156.35" cy="92.74" r="96.71" xlink:href="#radial-gradient"/><radialGradient id="radial-gradient-8" cx="147.51" cy="181.5" r="16.14" xlink:href="#radial-gradient"/></defs><g id="Camada_2" data-name="Camada 2"><g id="graphics"><path class="cls-1" d="M157.07,85.53c0-.11,0-.21,0-.33a196.79,196.79,0,0,0-3.62-23.56c1.16,6,2.51,13.7,3.5,23.15v0s0,.16,0,.3v0c.23,3.79,1.75,36.29-6.44,78.3a21.19,21.19,0,0,1,10,5.74C162.82,146.18,163.75,114.68,157.07,85.53Z"/><path class="cls-1" d="M157.07,85.53c0-.11,0-.21,0-.33a196.79,196.79,0,0,0-3.62-23.56c1.16,6,2.51,13.7,3.5,23.15v0s0,.16,0,.3v0c.23,3.79,1.75,36.29-6.44,78.3a21.19,21.19,0,0,1,10,5.74C162.82,146.18,163.75,114.68,157.07,85.53Z"/><path class="cls-1" d="M157.07,85.53c0-.11,0-.21,0-.33a196.79,196.79,0,0,0-3.62-23.56c1.16,6,2.51,13.7,3.5,23.15v0s0,.16,0,.3v0c.23,3.79,1.75,36.29-6.44,78.3a21.19,21.19,0,0,1,10,5.74C162.82,146.18,163.75,114.68,157.07,85.53Z"/><path class="cls-1" d="M157.07,85.53c0-.11,0-.21,0-.33a196.79,196.79,0,0,0-3.62-23.56c1.16,6,2.51,13.7,3.5,23.15v0s0,.16,0,.3v0c.23,3.79,1.75,36.29-6.44,78.3a21.19,21.19,0,0,1,10,5.74C162.82,146.18,163.75,114.68,157.07,85.53Z"/><path class="cls-1" d="M157.07,85.53c0-.11,0-.21,0-.33a196.79,196.79,0,0,0-3.62-23.56c1.16,6,2.51,13.7,3.5,23.15v0s0,.16,0,.3v0c.23,3.79,1.75,36.29-6.44,78.3a21.19,21.19,0,0,1,10,5.74C162.82,146.18,163.75,114.68,157.07,85.53Z"/><path class="cls-1" d="M157.07,85.53c0-.11,0-.21,0-.33a196.79,196.79,0,0,0-3.62-23.56c1.16,6,2.51,13.7,3.5,23.15v0s0,.16,0,.3v0c.23,3.79,1.75,36.29-6.44,78.3a21.19,21.19,0,0,1,10,5.74C162.82,146.18,163.75,114.68,157.07,85.53Z"/><path class="cls-2" d="M255.43,172.6c-4.39,6.5-16.54,8-40.83,11-10.71,1.33-19.85,1.5-34.23,1.76l-6,.07H171c1.76-1.39,3.63-2.94,5.57-4.63C189.13,169.92,204.36,153,207,133.48c.18-1.35.32-2.69.39-4,2.25-39.53-40.43-71-54.81-94.16-.07.13-.14.27-.22.4-4.45,8.69-12,18.82-19.81,30-15.08,21.64-30.95,47.18-26.46,73.89a59.71,59.71,0,0,0,16.82,32.33,71.46,71.46,0,0,0,5.79,5.31,5.08,5.08,0,0,0-.17.51,17.13,17.13,0,0,0-.72,6.6c-3.1-.17-6.38-.38-9.88-.64-12.22-.9-18.33-1.35-25.68-2.54a174.81,174.81,0,0,1-35.75-9.83c-4-5.24,10.72-45.15,37.24-91.08S148.82-.81,155.35,0c3.26-.41,12.05,8.15,23.33,22.56,9.25,11.81,16.76,22,23.9,33.13C210,67.23,214.92,76.37,217,80.21,247,135.38,261.81,163.16,255.43,172.6Z"/><path class="cls-3" d="M161.89,188.87a16,16,0,0,1-8.2,7.53,14.83,14.83,0,0,1-1.84.64,16.64,16.64,0,0,1-4.62.59l1.22-2.39,4.61-9a6.25,6.25,0,0,0-2.26-8.16l-.45-.26-.41-.21a7.93,7.93,0,0,0-10.68,3.45l-.32.57-.91,1.64-2.65,4.8-1.31,2.37a15.43,15.43,0,0,1-2-4.19,16.57,16.57,0,0,1-.65-3.28,15.77,15.77,0,0,1,.65-6.26,15.3,15.3,0,0,1,1-2.58,16.15,16.15,0,0,1,21.73-7,16.48,16.48,0,0,1,2.71,1.74h0a16.09,16.09,0,0,1,6.05,11.65h0A16,16,0,0,1,161.89,188.87Z"/><path class="cls-4" d="M29.84,210.71a25,25,0,0,0-12.5-2.78c-4.93,0-8.9,1.21-11.94,3.49a12.11,12.11,0,0,0-4.14,7.2,1.35,1.35,0,0,0,1.32,1.61h6.1a8.63,8.63,0,0,0,5-1.79,7,7,0,0,1,4-.91c3.6,0,5.35.75,5.26,2.27,0,.95-.75,1.57-2.27,1.85-2.09.28-4.45.67-7.11,1.14Q.29,224.92,0,235.29q0,8,6.54,10.94a20.89,20.89,0,0,0,10.37,1.56A23.77,23.77,0,0,0,27,245.38c4.82-2.56,7.34-7.15,7.52-13.78V219.23A9,9,0,0,0,29.84,210.71ZM15.49,238.27c-2.46,0-3.74-1.08-3.84-3.26q0-2.83,4-3.85,4-.84,5.12-1.13l.56-.14a1.18,1.18,0,0,1,.37,0A1.33,1.33,0,0,1,23,231.16C23.12,235.91,20.61,238.27,15.49,238.27Z"/><path class="cls-4" d="M76.45,217.39Q72,208,58.4,208q-9.8,0-14.21,5.68-4.26,5.69-4.25,14.21a26.08,26.08,0,0,0,1.7,9.24q5.25,13.37,20.32,9.94a7.39,7.39,0,0,0,1.82-.71,1.34,1.34,0,0,1,1.92,1.47,2,2,0,0,0,0,.24,7.1,7.1,0,0,1-1.57,3.27c-1,1.23-2.65,1.84-5.12,1.84a6,6,0,0,1-3.89-1.27,8.63,8.63,0,0,0-5.39-2H42.26A1.34,1.34,0,0,0,41,251.58a13.53,13.53,0,0,0,5.66,8.29,20.15,20.15,0,0,0,11.79,3.56,24.32,24.32,0,0,0,12.22-3,14,14,0,0,0,5.83-6.89,23.62,23.62,0,0,0,1.7-8.74v-19A20.32,20.32,0,0,0,76.45,217.39Zm-12.22,17.9A6.75,6.75,0,0,1,59,237.71a6.31,6.31,0,0,1-5.11-2.42c-1.33-1.7-1.94-4.21-1.85-7.53s.71-5.88,1.85-7.39A6.23,6.23,0,0,1,59.11,218a5.47,5.47,0,0,1,5.12,2.42,13.82,13.82,0,0,1,1.85,7.25C66.17,231.21,65.56,233.78,64.23,235.29Z"/><path class="cls-4" d="M106.82,208.12Q84.7,207.9,84.7,228.61v17.13A1.33,1.33,0,0,0,86,247.08h9.39a1.34,1.34,0,0,0,1.34-1.34V227.62q0-3.84,1.7-5.54t5.26-1.71h3.06a1.35,1.35,0,0,0,1.35-1.35v-9.56A1.34,1.34,0,0,0,106.82,208.12Z"/><path class="cls-4" d="M143.54,211.73a.86.86,0,0,1,.07.21l.23,0A3.31,3.31,0,0,0,143.54,211.73Z"/><path class="cls-4" d="M150.83,218.24a5.18,5.18,0,0,0-2.35-1.45,4.5,4.5,0,0,0-1.83-3.55,6.13,6.13,0,0,0-2.81-1.26l-.23,0a.86.86,0,0,0-.07-.21,5.13,5.13,0,0,0-3.16-3.4,5.73,5.73,0,0,0-1.74-.45l6.48-12.26a4.75,4.75,0,0,0-2-6.41l-.21-.12a5.82,5.82,0,0,0-2.64-.65,5.63,5.63,0,0,0-5,3l-9.18,16.12c-.1.17-.3.49-.67,1.14s-1.11,2-2.2,4A10.65,10.65,0,0,0,122.1,210a14.61,14.61,0,0,0-4-4.46,5.22,5.22,0,0,0-2.92-1,3.27,3.27,0,0,0-.54,0,6.31,6.31,0,0,0-.86.2c-2,.61-4,2.24-3.93,4.47a5.6,5.6,0,0,0,.89,2.48c.12.21.26.44.42.68a7,7,0,0,1,1.13,2.5c.23,1.31.68,3.65,1.19,6.1a26.42,26.42,0,0,0-.89,6.69q0,10.23,6.11,15.91a16.87,16.87,0,0,0,8.59,3.84,23.76,23.76,0,0,0,9.73-.29,15,15,0,0,0,9.24-6,21.92,21.92,0,0,0,4-13.36q0-.69,0-1.35l1-1.89C151.64,223.64,153,220.6,150.83,218.24ZM138.12,228q-.3,10-6.82,10t-6.67-10.09q.27-8,4.25-9.66a6.55,6.55,0,0,1,6.69,1.16,3.13,3.13,0,0,1,.25.26q2.15,2.94,2.3,8.18Z"/><path class="cls-4" d="M183.16,233.87a5.7,5.7,0,0,0-4.69,2.13,7.1,7.1,0,0,1-4.84,1.84h-.25c-4.37-.33-6.56-3.7-6.56-10.08q.15-9.81,6.4-9.81a6.31,6.31,0,0,1,4.86,1.77,7.48,7.48,0,0,0,5.52,2.21h7.81l-.28-1.28a16.85,16.85,0,0,0-4.12-7.38c-3.42-3.8-8.1-5.59-14.08-5.4q-9,0-13.63,5.54-5.12,5.53-4.83,14.35.14,8.81,5,14.64,4.84,5.4,13.64,5.39,14.07-.14,18.34-12.64l.43-1.28Z"/><path class="cls-4" d="M203.48,197.64h-4.62a1.34,1.34,0,0,0-1.34,1.34v46.76a1.34,1.34,0,0,0,1.34,1.34h9.53a1.34,1.34,0,0,0,1.35-1.34V203.6Q209.74,197.63,203.48,197.64Z"/><path class="cls-4" d="M222.39,197.64h-4.63a1.35,1.35,0,0,0-1.35,1.34v5.12a1.35,1.35,0,0,0,1.35,1.35h9.53a1.34,1.34,0,0,0,1.34-1.35v-.5Q228.63,197.63,222.39,197.64Zm-.15,10.94h-4.48a1.35,1.35,0,0,0-1.35,1.34v35.82a1.35,1.35,0,0,0,1.35,1.34h9.53a1.33,1.33,0,0,0,1.34-1.34V214.69C228.63,210.61,226.51,208.58,222.24,208.58Z"/><path class="cls-4" d="M262.88,233.87a5.68,5.68,0,0,0-4.69,2.13,7.11,7.11,0,0,1-4.85,1.84h-.25c-4.37-.33-6.55-3.7-6.55-10.08q.15-9.81,6.4-9.81a6.31,6.31,0,0,1,4.86,1.77,7.47,7.47,0,0,0,5.53,2.21h7.8l-.29-1.28a16.76,16.76,0,0,0-4.12-7.38q-5.12-5.7-14.07-5.4c-6,0-10.52,1.84-13.64,5.54q-5.12,5.53-4.83,14.35.13,8.81,5,14.64,4.83,5.4,13.65,5.39,14.06-.14,18.33-12.64l.42-1.28Z"/><path class="cls-4" d="M312.34,210.85a1.35,1.35,0,0,0-1-2.27H300.31a1.29,1.29,0,0,0-1,.48L291.83,218a1.34,1.34,0,0,1-2.37-.86V203.6q0-6-6.26-6h-4.62a1.33,1.33,0,0,0-1.34,1.34v46.76a1.33,1.33,0,0,0,1.34,1.34h9.53a1.35,1.35,0,0,0,1.35-1.34V233.16c0-.57.18-.85.56-.85.47-.19,1,.28,1.57,1.42l6.72,12.64a1.35,1.35,0,0,0,1.19.71h11.06a1.34,1.34,0,0,0,1.17-2l-11.54-19.85a1.36,1.36,0,0,1,.18-1.6Z"/><text class="cls-5" transform="translate(84.7 274.98)">culti<tspan class="cls-6" x="58.75" y="0">v</tspan><tspan class="cls-7" x="73.34" y="0">e o sucesso</tspan></text></g></g></svg>